<svg xmlns="http://www.w3.org/2000/svg" xmlns:xlink="http://www.w3.org/1999/xlink" width="500" zoomAndPan="magnify" viewBox="0 0 375 374.999991" height="500" preserveAspectRatio="xMidYMid meet" version="1.0"><defs><clipPath id="5b862bfc4d"><path d="M 217 22.265625 L 279 22.265625 L 279 71 L 217 71 Z M 217 22.265625 " clip-rule="nonzero"/></clipPath><clipPath id="5d375356fc"><path d="M 109 22.265625 L 215 22.265625 L 215 128 L 109 128 Z M 109 22.265625 " clip-rule="nonzero"/></clipPath></defs><path fill="#8d3daf" d="M 86.761719 150.183594 C 86.761719 158.78125 86.761719 166.84375 86.761719 175.15625 C 97.035156 175.15625 107.230469 175.15625 117.710938 175.15625 C 117.710938 181.492188 117.710938 187.574219 117.710938 194.226562 C 133.785156 183.71875 149.390625 173.507812 165.238281 163.15625 C 149.449219 152.832031 133.890625 142.652344 117.945312 132.230469 C 117.945312 138.332031 117.945312 144.101562 117.945312 150.183594 C 107.464844 150.183594 97.285156 150.183594 86.761719 150.183594 " fill-opacity="1" fill-rule="nonzero"/><g clip-path="url(#5b862bfc4d)"><path fill="#8d3daf" d="M 278.082031 36.492188 L 278.082031 55.78125 L 254.171875 55.78125 L 254.171875 70.496094 C 243.777344 63.703125 233.625 57.054688 223.402344 50.375 C 221.441406 49.097656 219.449219 47.796875 217.464844 46.496094 C 219.257812 45.339844 221.019531 44.167969 222.785156 43.015625 C 233.179688 36.214844 243.480469 29.488281 254.003906 22.625 L 254.003906 36.492188 L 278.082031 36.492188 " fill-opacity="1" fill-rule="nonzero"/></g><path fill="#8d3daf" d="M 65.980469 111.875 L 65.980469 123.070312 L 59.191406 123.070312 C 54.3125 123.070312 53.503906 123.851562 53.503906 128.683594 L 53.503906 288.226562 L 42.242188 288.226562 L 42.242188 128.34375 C 42.242188 117.472656 47.863281 111.875 58.792969 111.875 L 65.980469 111.875 " fill-opacity="1" fill-rule="nonzero"/><path fill="#8d3daf" d="M 332.542969 288.226562 L 321.308594 288.226562 L 321.308594 129.054688 C 321.308594 123.726562 320.621094 123.070312 315.273438 123.070312 L 308.726562 123.070312 L 308.726562 111.824219 L 315.984375 111.824219 C 321.871094 111.796875 327.097656 113.175781 329.996094 118.480469 C 331.632812 121.542969 332.4375 125.5 332.4375 129.03125 C 332.613281 171.339844 332.542969 213.699219 332.542969 255.980469 C 332.542969 266.722656 332.613281 277.5 332.542969 288.226562 " fill-opacity="1" fill-rule="nonzero"/><path fill="#8d3daf" d="M 65.980469 91.113281 L 65.980469 102.398438 L 59.113281 102.398438 C 56.390625 102.398438 53.546875 102.601562 50.878906 103.3125 C 39.546875 106.226562 32.734375 115.632812 32.734375 128.265625 C 32.734375 181.59375 32.734375 234.898438 32.785156 288.226562 L 21.480469 288.226562 C 21.652344 234.507812 21.507812 180.8125 21.574219 127.113281 C 21.574219 110.011719 32.492188 96.050781 48.894531 92.144531 C 51.9375 91.433594 55.09375 91.113281 58.214844 91.113281 L 65.980469 91.113281 " fill-opacity="1" fill-rule="nonzero"/><path fill="#8d3daf" d="M 353.253906 288.226562 L 342.078125 288.226562 C 342.027344 235.121094 342.054688 182.035156 342.054688 128.933594 C 342.054688 112.386719 332.125 102.375 315.621094 102.375 L 308.726562 102.375 L 308.726562 91.09375 L 316.722656 91.09375 C 337.832031 91.113281 353.238281 106.523438 353.238281 127.582031 C 353.253906 181.125 353.238281 234.652344 353.253906 288.226562 " fill-opacity="1" fill-rule="nonzero"/><g clip-path="url(#5d375356fc)"><path fill="#8d3daf" d="M 184.3125 88.292969 C 179.777344 95.632812 171.664062 100.492188 162.421875 100.492188 C 161.484375 100.492188 160.558594 100.4375 159.648438 100.34375 C 158.347656 100.222656 157.054688 99.972656 155.796875 99.632812 C 144.8125 96.707031 136.671875 86.652344 136.671875 74.695312 C 136.671875 68.09375 139.179688 62.0625 143.320312 57.472656 C 146.191406 54.277344 149.816406 51.824219 153.933594 50.375 C 155.207031 49.914062 156.535156 49.566406 157.886719 49.324219 C 159.351562 49.046875 160.878906 48.90625 162.421875 48.90625 C 162.636719 48.90625 162.890625 48.90625 163.105469 48.925781 C 165.878906 49.003906 168.523438 49.488281 171.003906 50.375 C 181.007812 53.914062 188.1875 63.5 188.1875 74.695312 C 188.1875 79.703125 186.789062 84.34375 184.3125 88.292969 Z M 198.417969 87.113281 L 198.886719 85.886719 L 214.964844 85.886719 L 214.964844 63.527344 L 200.011719 63.527344 L 199.585938 62.15625 C 199.101562 60.34375 198.484375 58.597656 197.757812 56.882812 L 197.238281 55.726562 L 207.484375 45.472656 L 205.03125 43.015625 L 191.699219 29.644531 L 182.324219 38.964844 L 181.078125 38.226562 C 179.039062 37.097656 176.984375 36.144531 174.851562 35.355469 L 173.621094 34.894531 L 173.621094 22.15625 L 151.261719 22.15625 L 151.261719 34.199219 L 149.910156 34.597656 C 148.539062 34.988281 147.214844 35.484375 145.898438 36.046875 C 144.863281 36.464844 143.859375 36.925781 142.878906 37.417969 L 141.648438 38.0625 L 134.808594 31.230469 L 133.214844 29.644531 L 117.398438 45.472656 L 122.332031 50.375 L 126.035156 54.078125 L 125.445312 55.335938 C 124.386719 57.472656 123.503906 59.796875 122.84375 62.15625 L 122.453125 63.527344 L 109.902344 63.527344 L 109.902344 85.886719 L 123.605469 85.886719 L 124.066406 87.113281 C 124.777344 89.027344 125.660156 90.894531 126.71875 92.683594 L 127.429688 93.933594 L 117.398438 103.945312 L 133.214844 119.804688 L 144.128906 108.855469 L 145.324219 109.367188 C 146.796875 110.011719 148.339844 110.574219 149.910156 111.042969 L 151.261719 111.433594 L 151.261719 127.285156 L 173.621094 127.285156 L 173.621094 110.746094 L 174.851562 110.277344 C 176.152344 109.808594 177.453125 109.246094 178.726562 108.65625 L 179.949219 108.050781 L 185.195312 113.273438 L 191.699219 119.804688 L 207.484375 103.945312 L 195.9375 92.414062 L 196.578125 91.191406 C 197.261719 89.863281 197.878906 88.515625 198.417969 87.113281 " fill-opacity="1" fill-rule="nonzero"/></g><path fill="#8d3daf" d="M 238.695312 174.226562 C 234.828125 180.464844 227.917969 184.621094 220.046875 184.621094 C 219.257812 184.621094 218.453125 184.578125 217.679688 184.5 C 216.570312 184.386719 215.46875 184.171875 214.410156 183.886719 C 205.039062 181.386719 198.097656 172.832031 198.097656 162.644531 C 198.097656 157.003906 200.238281 151.859375 203.765625 147.960938 C 206.957031 144.398438 211.289062 141.890625 216.179688 141.011719 C 217.4375 140.785156 218.730469 140.65625 220.046875 140.65625 C 220.238281 140.65625 220.4375 140.65625 220.628906 140.675781 C 232.480469 140.988281 242.007812 150.730469 242.007812 162.644531 C 242.007812 166.894531 240.800781 170.859375 238.695312 174.226562 Z M 250.71875 173.210938 L 251.109375 172.1875 L 264.824219 172.1875 L 264.824219 153.117188 L 252.074219 153.117188 L 251.71875 151.945312 C 251.300781 150.390625 250.789062 148.910156 250.15625 147.460938 L 249.707031 146.460938 L 258.453125 137.722656 L 244.988281 124.238281 L 237.023438 132.1875 L 235.9375 131.570312 C 234.222656 130.601562 232.445312 129.785156 230.640625 129.117188 L 229.59375 128.71875 L 229.59375 117.871094 L 210.527344 117.871094 L 210.527344 128.136719 L 209.382812 128.457031 C 208.230469 128.796875 207.085938 129.222656 205.960938 129.699219 C 205.09375 130.054688 204.234375 130.460938 203.402344 130.878906 L 202.351562 131.425781 L 196.519531 125.601562 L 195.148438 124.238281 L 181.675781 137.722656 L 189.035156 145.074219 L 188.535156 146.140625 C 187.632812 147.960938 186.894531 149.941406 186.332031 151.945312 L 185.992188 153.117188 L 175.296875 153.117188 L 175.296875 172.1875 L 186.972656 172.1875 L 187.355469 173.210938 C 187.96875 174.84375 188.722656 176.441406 189.617188 177.96875 L 190.222656 179.035156 L 181.675781 187.574219 L 195.148438 201.066406 L 204.460938 191.746094 L 205.472656 192.1875 C 206.730469 192.734375 208.046875 193.214844 209.382812 193.601562 L 210.527344 193.941406 L 210.527344 207.453125 L 229.59375 207.453125 L 229.59375 193.359375 L 230.640625 192.960938 C 231.75 192.570312 232.851562 192.085938 233.945312 191.574219 L 234.976562 191.0625 L 239.449219 195.519531 L 244.988281 201.066406 L 258.453125 187.574219 L 248.613281 177.726562 L 249.160156 176.691406 C 249.742188 175.5625 250.25 174.410156 250.71875 173.210938 " fill-opacity="1" fill-rule="nonzero"/><path fill="#8d3daf" d="M 250.277344 313.953125 C 248.386719 318.335938 245.777344 320.582031 240.890625 320.554688 C 205.230469 320.433594 169.597656 320.433594 133.941406 320.554688 C 129.078125 320.582031 126.417969 318.386719 124.5 313.953125 Z M 0.214844 303.59375 L 0.214844 306.1875 C 0.214844 331.851562 20.96875 352.695312 46.585938 352.796875 L 46.796875 352.796875 C 47.828125 352.875 48.910156 352.902344 50.003906 352.902344 C 66.691406 352.851562 83.355469 352.796875 100.042969 352.796875 L 327.984375 352.796875 C 353.707031 352.796875 374.5625 331.929688 374.5625 306.1875 L 374.5625 303.59375 L 0.214844 303.59375 " fill-opacity="1" fill-rule="nonzero"/><path fill="#8d3daf" d="M 288.207031 43.015625 L 287.886719 43.015625 L 287.886719 50.375 L 288.207031 50.375 C 293.625 50.375 298.011719 54.765625 298.011719 60.195312 L 298.011719 239.957031 C 298.011719 245.378906 293.625 249.769531 288.207031 249.769531 L 86.527344 249.769531 C 81.109375 249.769531 76.722656 245.378906 76.722656 239.957031 L 76.722656 60.195312 C 76.722656 54.765625 81.109375 50.375 86.527344 50.375 L 108.425781 50.375 L 103.519531 45.472656 L 105.972656 43.015625 L 86.527344 43.015625 C 77.070312 43.015625 69.371094 50.71875 69.371094 60.195312 L 69.371094 239.957031 C 69.371094 249.421875 77.070312 257.136719 86.527344 257.136719 L 288.207031 257.136719 C 297.675781 257.136719 305.371094 249.421875 305.371094 239.957031 L 305.371094 60.195312 C 305.371094 50.71875 297.675781 43.015625 288.207031 43.015625 " fill-opacity="1" fill-rule="nonzero"/></svg>